# xmcd
#
# Track frame offsets:
# 150
# 14832
# 25362
# 38797
# 49980
# 62457
# 74900
# 89882
# 117802
# 129807
# 148162
# 159987
# 177452
# 191142
#
# Disc length: 3101 seconds
#
#
# Revision: 0
# Processed by: cddbd v1.5.1PL0 Copyright (c) Steve Scherf et al.
# Submitted via: FreeRIP 2.60 
#
DISCID=d50c1b0e
DTITLE=VARIOS - BLACK MUSIC - AUDIO NEWS - BLACK MUSIC
DYEAR=1996
DGENRE=Blues
TTITLE0=Get on the good foot
TTITLE1=I Cant Stop Dancing - James Brown
TTITLE2=Do I make myself clear? - Archie Bell and The Drells
TTITLE3=This Magic Moment - Sugar Pie Desanto
TTITLE4=Int Tears me UP - Percy Sledge
TTITLE5=My Guy - Mary Wells
TTITLE6=Satisfaction Guaranteed - Harold Melvin and The Blue Note
TTITLE7=Stay in my corner - The Dells
TTITLE8=Heatwave - Martha Reeves
TTITLE9=Rainy night in Georgia - Brook Benton
TTITLE10=The Great Pretender - The Platters
TTITLE11=Keep It Coming Love - Keep it Coming Love
TTITLE12=Wonderful World - Sam and Dave
TTITLE13=It큦 a man큦,man큦,man큦 world - James Brown
EXTD=
EXTT0=
EXTT1=
EXTT2=
EXTT3=
EXTT4=
EXTT5=
EXTT6=
EXTT7=
EXTT8=
EXTT9=
EXTT10=
EXTT11=
EXTT12=
EXTT13=
PLAYORDER=
